<?xml version="1.0" encoding="UTF-8" standalone="no"?>
<!-- Created with Inkscape (http://www.inkscape.org/) -->

<svg
   xmlns:dc="http://purl.org/dc/elements/1.1/"
   xmlns:cc="http://creativecommons.org/ns#"
   xmlns:rdf="http://www.w3.org/1999/02/22-rdf-syntax-ns#"
   xmlns:svg="http://www.w3.org/2000/svg"
   xmlns="http://www.w3.org/2000/svg"
   xmlns:sodipodi="http://sodipodi.sourceforge.net/DTD/sodipodi-0.dtd"
   xmlns:inkscape="http://www.inkscape.org/namespaces/inkscape"
   width="100mm"
   height="100mm"
   viewBox="0 0 100 100"
   version="1.1"
   id="svg8"
   inkscape:version="0.92.5 (2060ec1f9f, 2020-04-08)"
   sodipodi:docname="pause.svg">
  <defs
     id="defs2">
    <filter
       style="color-interpolation-filters:sRGB;"
       inkscape:label="Drop Shadow"
       id="filter857">
      <feFlood
         flood-opacity="0.498039"
         flood-color="rgb(0,0,0)"
         result="flood"
         id="feFlood847" />
      <feComposite
         in="flood"
         in2="SourceGraphic"
         operator="in"
         result="composite1"
         id="feComposite849" />
      <feGaussianBlur
         in="composite1"
         stdDeviation="3"
         result="blur"
         id="feGaussianBlur851" />
      <feOffset
         dx="6"
         dy="6"
         result="offset"
         id="feOffset853" />
      <feComposite
         in="SourceGraphic"
         in2="offset"
         operator="over"
         result="composite2"
         id="feComposite855" />
    </filter>
  </defs>
  <sodipodi:namedview
     id="base"
     pagecolor="#ffffff"
     bordercolor="#666666"
     borderopacity="1.0"
     inkscape:pageopacity="0.0"
     inkscape:pageshadow="2"
     inkscape:zoom="1.4"
     inkscape:cx="305.41342"
     inkscape:cy="271.98444"
     inkscape:document-units="mm"
     inkscape:current-layer="layer1"
     showgrid="true"
     inkscape:window-width="1920"
     inkscape:window-height="1049"
     inkscape:window-x="0"
     inkscape:window-y="0"
     inkscape:window-maximized="1"
     showguides="false">
    <inkscape:grid
       type="xygrid"
       id="grid961" />
  </sodipodi:namedview>
  <metadata
     id="metadata5">
    <rdf:RDF>
      <cc:Work
         rdf:about="">
        <dc:format>image/svg+xml</dc:format>
        <dc:type
           rdf:resource="http://purl.org/dc/dcmitype/StillImage" />
        <dc:title />
      </cc:Work>
    </rdf:RDF>
  </metadata>
  <g
     inkscape:label="Capa 1"
     inkscape:groupmode="layer"
     id="layer1"
     transform="translate(0,-197)">
    <path
       style="fill:#ffb900;fill-opacity:1;stroke:#000000;stroke-width:0.229;stroke-miterlimit:4;stroke-dasharray:none;stroke-opacity:1;filter:url(#filter857)"
       d="m 50.801551,207.03527 c -2.020348,0.0728 -1.20318,2.92074 -2.482099,3.6877 -1.248379,0.17335 -3.125525,0.29564 -3.577221,-1.12449 0.621918,-1.46384 -0.760971,-1.87957 -1.837677,-2.13518 -1.555258,-0.14709 -3.414495,-0.26178 -4.857707,0.20821 -0.854986,0.86334 -2.477523,0.27264 -3.625656,0.6638 -2.49101,0.037 -4.98124,0.3499 -7.473483,0.2032 0.999417,0.50729 1.03628,1.61547 1.70527,2.11225 0.361001,1.04765 1.394327,0.73501 2.344516,1.46554 1.199836,0.3788 2.150471,0.6621 3.356807,0.96849 1.322612,-0.0429 2.658811,0.60084 4.019068,0.23128 0.758787,0.87299 2.544508,-0.26503 3.173968,1.0356 1.290184,0.96845 2.95369,1.43626 4.543906,1.16951 -0.301642,-1.4603 2.249852,-0.94247 1.565677,0.25957 -0.975393,0.82448 -1.069834,1.93679 -1.467124,2.92021 -15.633923,1.73595 -28.018339,18.84248 -22.492347,34.13736 2.398467,8.77188 10.62218,14.51437 18.117053,17.87416 -1.183727,0.92053 -0.943635,2.90934 -0.273411,4.10105 0.77902,1.54175 2.618023,2.4331 4.336655,2.14666 2.033052,0.17557 3.999722,-0.44462 5.957223,-0.73484 1.058879,0.1768 2.717763,-0.36332 3.410238,0.43411 -1.877788,0.85671 -4.477532,-0.12307 -5.984511,1.55046 -0.857117,1.4614 -0.463064,3.1918 -0.397016,4.79699 -1.192782,0.94421 -0.869674,2.9918 -0.239467,4.05702 1.813794,0.14316 0.196581,1.47814 1.120237,2.23424 -0.09644,1.32484 1.339917,1.94585 0.938513,3.40941 0.38737,0.98611 -0.185722,2.8655 -0.14859,3.09498 1.128569,-0.64267 0.881357,0.27487 0.582513,-1.6767 0.09647,-1.2117 -0.650269,-2.70053 0.419493,-3.5013 -0.255894,-1.20195 1.063611,-2.04906 0.193328,-2.9155 1.273355,-0.61398 0.933912,-2.07202 1.043124,-3.26944 0.494552,-1.36033 -1.765171,-1.59556 -1.032429,-2.91899 0.490795,-1.10413 1.640149,-1.72745 2.801317,-1.22494 2.585545,0.70836 5.594805,-1.44896 5.246861,-4.23504 0.199406,-2.8688 -3.297606,-4.02186 -5.637141,-3.45127 -2.842772,0.21183 -5.644821,1.06509 -8.498792,0.89208 -1.756115,-0.77799 1.328307,-0.52924 1.993059,-0.57497 3.377414,-0.20245 6.832695,-0.51507 9.933141,-1.95358 12.175898,-3.40034 22.51393,-15.38035 20.747852,-28.63074 -0.78204,-12.89761 -13.206611,-22.06818 -24.317588,-24.14834 0.389854,-1.38525 -2.009803,-2.05157 -0.993845,-3.32932 1.050987,-1.27757 1.294986,1.27839 2.563778,0.78992 1.439157,-0.31004 3.13813,-0.78811 3.842142,-2.20453 1.161605,0.16948 2.208489,0.12278 3.327893,-0.0336 1.272757,0.21481 2.305187,-0.54051 3.554374,-0.43413 1.271985,-0.2037 2.070806,-0.87085 3.404784,-0.64094 1.155611,-0.14637 1.342429,-1.47732 1.941804,-1.30583 0.624814,-0.63126 0.466509,-1.46977 1.568744,-1.79511 -0.791936,-0.65303 -2.382718,-0.25258 -3.484985,-0.47171 -1.276436,-0.13012 -2.744057,0.21217 -3.841663,-0.36392 -1.217083,-0.23246 -2.872018,0.51456 -3.752341,-0.47124 -1.363827,-0.53998 -3.063838,-0.13751 -4.55623,-0.26356 -0.548736,0.45734 -1.875705,-0.0615 -2.03812,1.26973 1.275899,0.0844 -0.759077,1.8056 -1.486577,1.82624 -1.224513,0.39237 -2.460894,-0.13923 -2.44827,-1.51221 0.101464,-1.06907 2.609828,-0.40564 0.634943,-1.51831 -0.269098,-0.54234 -0.889524,-0.68398 -1.443991,-0.70008 z m -1.870686,9.78861 c 1.250411,0.61009 -2.063759,3.10224 -1.303281,0.96891 0.464022,-0.28322 0.877497,-0.63308 1.303281,-0.96891 z m 2.705778,0 c 1.501658,0.72731 1.704594,2.88393 -0.04954,1.058 -0.460508,-0.27508 -0.483281,-0.87184 0.04954,-1.058 z m -1.045414,5.26792 c 15.172774,-0.75891 28.702721,15.31292 23.371047,30.0363 -4.550629,14.97753 -24.562756,21.04192 -37.184099,12.28351 -13.336744,-7.67099 -14.18523,-28.67811 -1.393461,-37.29623 4.341826,-3.27605 9.775733,-5.0326 15.206513,-5.02358 z"
       id="path918"
       inkscape:connector-curvature="0" />
  </g>
</svg>
